<svg width="512" height="512" viewBox="0 0 512 512" fill="none" xmlns="http://www.w3.org/2000/svg" role="img" aria-label="LUC4N3X L4X sigil">
  <defs>
    <linearGradient id="bg" x1="48" y1="36" x2="464" y2="476" gradientUnits="userSpaceOnUse">
      <stop stop-color="#0D1222"/>
      <stop offset="1" stop-color="#060814"/>
    </linearGradient>
    <linearGradient id="border" x1="36" y1="34" x2="474" y2="478" gradientUnits="userSpaceOnUse">
      <stop stop-color="#00F2FE" stop-opacity="0.54"/>
      <stop offset="0.5" stop-color="#334155" stop-opacity="0.5"/>
      <stop offset="1" stop-color="#818CF8" stop-opacity="0.58"/>
    </linearGradient>
    <linearGradient id="cyan" x1="130" y1="104" x2="358" y2="390" gradientUnits="userSpaceOnUse">
      <stop stop-color="#00F2FE"/>
      <stop offset="0.52" stop-color="#38BDF8"/>
      <stop offset="1" stop-color="#818CF8"/>
    </linearGradient>
    <linearGradient id="indigo" x1="194" y1="100" x2="370" y2="404" gradientUnits="userSpaceOnUse">
      <stop stop-color="#38BDF8"/>
      <stop offset="0.55" stop-color="#6366F1"/>
      <stop offset="1" stop-color="#A855F7"/>
    </linearGradient>
    <radialGradient id="aura" cx="0" cy="0" r="1" gradientTransform="translate(256 256) rotate(90) scale(206)" gradientUnits="userSpaceOnUse">
      <stop stop-color="#38BDF8" stop-opacity="0.18"/>
      <stop offset="0.55" stop-color="#6366F1" stop-opacity="0.08"/>
      <stop offset="1" stop-color="#060814" stop-opacity="0"/>
    </radialGradient>
    <filter id="glow" x="-30%" y="-30%" width="160%" height="160%">
      <feGaussianBlur stdDeviation="7" result="b"/>
      <feMerge><feMergeNode in="b"/><feMergeNode in="SourceGraphic"/></feMerge>
    </filter>
  </defs>
  <rect x="20" y="20" width="472" height="472" rx="104" fill="url(#bg)" stroke="url(#border)" stroke-width="3"/>
  <circle cx="256" cy="256" r="198" fill="url(#aura)"/>
  <g transform="translate(86 82) scale(2.25)" filter="url(#glow)">
    <path d="M22 20H40V110H76V128H22V20Z" fill="url(#cyan)"/>
    <path d="M114 18H138L72 106H48L114 18Z" fill="url(#indigo)"/>
    <path d="M52 24H74L138 128H116L52 24Z" fill="url(#cyan)"/>
    <path d="M66 72H122V90H66V72Z" fill="url(#indigo)"/>
    <path d="M104 48H122V112H104V48Z" fill="url(#indigo)"/>
  </g>
  <path d="M286.25 255.25L311 239.5L333.5 275.5L308.75 293.5L286.25 255.25Z" fill="#090D18" opacity="0.94"/>
</svg>