<svg width="800" height="180" viewBox="0 0 800 180" fill="none" xmlns="http://www.w3.org/2000/svg" role="img" aria-label="LUC4N3X">
  <defs>
    <linearGradient id="cyan" x1="0" y1="0" x2="1" y2="1">
      <stop stop-color="#00F2FE"/>
      <stop offset="0.52" stop-color="#38BDF8"/>
      <stop offset="1" stop-color="#818CF8"/>
    </linearGradient>
    <linearGradient id="indigo" x1="0" y1="0" x2="1" y2="1">
      <stop stop-color="#38BDF8"/>
      <stop offset="0.55" stop-color="#6366F1"/>
      <stop offset="1" stop-color="#A855F7"/>
    </linearGradient>
    <linearGradient id="beam" x1="0" y1="0" x2="1" y2="0">
      <stop stop-color="#00F2FE"/>
      <stop offset="0.36" stop-color="#6366F1"/>
      <stop offset="0.72" stop-color="#00F2FE" stop-opacity="0.3"/>
      <stop offset="1" stop-color="#0D1117" stop-opacity="0"/>
    </linearGradient>
    <radialGradient id="aura" cx="0" cy="0" r="1" gradientTransform="translate(151 89) rotate(90) scale(74)" gradientUnits="userSpaceOnUse">
      <stop stop-color="#38BDF8" stop-opacity="0.18"/>
      <stop offset="0.62" stop-color="#6366F1" stop-opacity="0.07"/>
      <stop offset="1" stop-color="#0D1117" stop-opacity="0"/>
    </radialGradient>
    <filter id="glow" x="-40%" y="-40%" width="180%" height="180%">
      <feGaussianBlur stdDeviation="4" result="b"/>
      <feMerge><feMergeNode in="b"/><feMergeNode in="SourceGraphic"/></feMerge>
    </filter>
  </defs>
  <g transform="translate(76 14)">
    <circle cx="76" cy="76" r="74" fill="url(#aura)"/>
    <g filter="url(#glow)">
      <path d="M22 20H40V110H76V128H22V20Z" fill="url(#cyan)"/>
      <path d="M114 18H138L72 106H48L114 18Z" fill="url(#indigo)"/>
      <path d="M52 24H74L138 128H116L52 24Z" fill="url(#cyan)"/>
      <path d="M66 72H122V90H66V72Z" fill="url(#indigo)"/>
      <path d="M104 48H122V112H104V48Z" fill="url(#indigo)"/>
    </g>
    <path d="M89 77L100 70L110 86L99 94L89 77Z" fill="#0D1117" opacity="0.92"/>
  </g>
  <g transform="translate(265 20)">
    <circle cx="4" cy="18" r="3.5" fill="#00F2FE" filter="url(#glow)"/>
    <text x="16" y="22" fill="#38BDF8" font-family="'JetBrains Mono', SFMono-Regular, Consolas, monospace" font-size="12" font-weight="600" letter-spacing="3.5">SOFTWARE ENGINEER &amp; CREATOR</text>
    <text x="0" y="74" fill="#F8FAFC" font-family="-apple-system, BlinkMacSystemFont, 'Segoe UI', Inter, Montserrat, sans-serif" font-size="64" font-weight="900" letter-spacing="4">LUC4N3<tspan fill="url(#cyan)">X</tspan></text>
    <rect x="0" y="94" width="450" height="2.5" rx="1.25" fill="url(#beam)"/>
    <circle cx="0" cy="95" r="3.5" fill="#00F2FE" filter="url(#glow)"/>
  </g>
</svg>