<svg xmlns="http://www.w3.org/2000/svg" viewBox="0 0 760 520" role="img" aria-labelledby="title desc">
  <title id="title">Android workbench showcase</title>
  <desc id="desc">A developer workspace with Kotlin playback code, terminal output and an emulator.</desc>
  <defs>
    <linearGradient id="bg" x1="0" y1="0" x2="1" y2="1">
      <stop stop-color="#0D1117"/>
      <stop offset="1" stop-color="#101826"/>
    </linearGradient>
    <linearGradient id="accent" x1="0" y1="0" x2="1" y2="0">
      <stop stop-color="#58A6FF"/>
      <stop offset="1" stop-color="#39C5CF"/>
    </linearGradient>
  </defs>
  <rect x="1" y="1" width="758" height="518" rx="28" fill="url(#bg)" stroke="#30363D" stroke-width="2"/>
  <text x="42" y="52" fill="#58A6FF" font-family="Inter,Segoe UI,sans-serif" font-size="15" font-weight="700" letter-spacing="2">ANDROID WORKBENCH</text>
  <text x="42" y="91" fill="#F0F6FC" font-family="Inter,Segoe UI,sans-serif" font-size="31" font-weight="750">Android, media, and the hard parts</text>
  <text x="42" y="120" fill="#8B949E" font-family="Inter,Segoe UI,sans-serif" font-size="16">Kotlin · Jetpack Compose · Media3 · ExoPlayer</text>

  <g transform="translate(42 154)">
    <rect width="450" height="238" rx="18" fill="#0B0F14" stroke="#30363D"/>
    <rect width="450" height="34" rx="18" fill="#161B22"/>
    <circle cx="18" cy="17" r="4" fill="#484F58"/><circle cx="32" cy="17" r="4" fill="#484F58"/><circle cx="46" cy="17" r="4" fill="#484F58"/>
    <text x="72" y="22" fill="#8B949E" font-family="SFMono-Regular,Consolas,monospace" font-size="12">PlayerViewModel.kt</text>
    <g font-family="SFMono-Regular,Consolas,monospace" font-size="13">
      <text x="22" y="62" fill="#C678DD">class</text><text x="69" y="62" fill="#61AFEF">PlayerViewModel</text><text x="187" y="62" fill="#ABB2BF">(</text>
      <text x="38" y="86" fill="#C678DD">private val</text><text x="118" y="86" fill="#E5C07B"> repo</text><text x="155" y="86" fill="#ABB2BF">: MusicRepository</text>
      <text x="22" y="110" fill="#ABB2BF">) : ViewModel() {</text>
      <text x="38" y="140" fill="#C678DD">fun</text><text x="65" y="140" fill="#61AFEF"> play</text><text x="102" y="140" fill="#ABB2BF">(track: Track) = viewModelScope.launch {</text>
      <text x="58" y="164" fill="#ABB2BF">repo.play(track)</text>
      <text x="58" y="188" fill="#56B6C2">_state.update</text><text x="152" y="188" fill="#ABB2BF"> { it.copy(isPlaying = </text><text x="327" y="188" fill="#D19A66">true</text><text x="354" y="188" fill="#ABB2BF">) }</text>
      <text x="38" y="212" fill="#ABB2BF">}</text>
    </g>
  </g>

  <g transform="translate(514 154)">
    <rect width="204" height="292" rx="28" fill="#05080D" stroke="#30363D" stroke-width="2"/>
    <rect x="12" y="12" width="180" height="268" rx="20" fill="#0D1117"/>
    <rect x="69" y="16" width="66" height="6" rx="3" fill="#21262D"/>
    <text x="28" y="54" fill="#8B949E" font-family="Inter,Segoe UI,sans-serif" font-size="10" letter-spacing="1">NOW PLAYING</text>
    <rect x="28" y="72" width="148" height="124" rx="15" fill="#15325C"/>
    <circle cx="102" cy="134" r="34" fill="none" stroke="#58A6FF" stroke-width="3"/>
    <text x="28" y="222" fill="#F0F6FC" font-family="Inter,Segoe UI,sans-serif" font-size="15" font-weight="700">Nocturne Cache</text>
    <text x="28" y="241" fill="#8B949E" font-family="Inter,Segoe UI,sans-serif" font-size="11">Levyra</text>
    <path d="M28 257H44V248H50V265H56V245H62V267H68V252H74V262H80V247H86V264H92V242H98V267H104V254H110V262H116V249H122V264H128V252H134V260H140V255H146V259H176" stroke="url(#accent)" stroke-width="2"/>
  </g>

  <g transform="translate(42 412)">
    <rect width="450" height="66" rx="16" fill="#0B0F14" stroke="#30363D"/>
    <text x="18" y="26" fill="#8B949E" font-family="SFMono-Regular,Consolas,monospace" font-size="12">~/projects/levyra  ./gradlew assembleDebug</text>
    <text x="18" y="48" fill="#3FB950" font-family="SFMono-Regular,Consolas,monospace" font-size="13" font-weight="700">BUILD SUCCESSFUL</text>
  </g>

  <g transform="translate(514 464)" font-family="Inter,Segoe UI,sans-serif" font-size="12">
    <text x="0" y="0" fill="#58A6FF">playback edge cases</text>
    <text x="0" y="20" fill="#8B949E">caching · recovery · polish</text>
  </g>
</svg>